<svg width="22" height="22" viewBox="0 0 22 22" fill="none" xmlns="http://www.w3.org/2000/svg">
<path d="M11.9897 10.0101L11.9897 1.1005C11.9897 0.534819 11.5654 0.110555 10.9997 0.110555C10.4341 0.110555 10.0098 0.53482 10.0098 1.10051L10.0098 10.0101L1.10025 10.0101C0.534563 10.0101 0.110299 10.4343 0.110299 11C0.110299 11.5657 0.534563 11.9899 1.10025 11.9899L10.0098 11.9899L10.0098 20.8995C10.0098 21.1823 10.0805 21.3945 10.2926 21.6066C10.7169 22.0309 11.2826 22.0309 11.7069 21.6066C11.919 21.3945 11.9897 21.1823 11.9897 20.8995L11.9897 11.9899L20.8992 11.99C21.1821 11.99 21.3942 11.9192 21.6063 11.7071C21.8185 11.495 21.8892 11.2828 21.8892 11C21.8892 10.4343 21.4649 10.01 20.8992 10.01L11.9897 10.0101Z" fill=""/>
</svg>
